<svg width="24" height="24" viewBox="0 0 24 24" fill="none" xmlns="http://www.w3.org/2000/svg">
<g clip-path="url(#clip0_23_7821)">
<!-- <rect width="22" height="22" transform="translate(1 1)" fill="#1A1A1A"/> -->
<path d="M18.4615 7.18759H5.52454C5.21388 7.17492 4.90919 7.27546 4.66708 7.47053C4.42497 7.6656 4.26191 7.94193 4.20821 8.24817L2.37487 21.0036C2.36538 21.1787 2.39301 21.3538 2.45596 21.5175C2.51892 21.6812 2.61576 21.8297 2.74015 21.9533C2.86454 22.0769 3.01365 22.1728 3.17772 22.2347C3.34178 22.2967 3.51708 22.3232 3.69212 22.3126H20.2939C20.4689 22.3232 20.6441 22.2967 20.8082 22.2347C20.9722 22.1728 21.1212 22.0769 21.2456 21.9533C21.3699 21.8296 21.4666 21.6811 21.5295 21.5174C21.5923 21.3538 21.6198 21.1786 21.6102 21.0036L19.7769 8.24817C19.7232 7.94209 19.5603 7.66589 19.3183 7.47084C19.0764 7.27579 18.772 7.17515 18.4615 7.18759V7.18759Z" stroke="#747474" stroke-width="1.83333" stroke-linecap="round" stroke-linejoin="round"/>
<path d="M15.3569 4.48975C15.2063 3.70318 14.7868 2.99347 14.1704 2.48222C13.554 1.97097 12.7789 1.69002 11.9781 1.6875V1.6875C11.1812 1.691 10.41 1.97031 9.79577 2.47798C9.18148 2.98565 8.76193 3.69035 8.6084 4.47233" stroke="#747474" stroke-width="1.83333" stroke-linecap="round" stroke-linejoin="round"/>
</g>
<defs>
<clipPath id="clip0_23_7821">
<rect width="22" height="22" fill="white" transform="translate(1 1)"/>
</clipPath>
</defs>
</svg>
