<svg width="24" height="24" viewBox="0 0 24 24" fill="none" xmlns="http://www.w3.org/2000/svg">
<!-- <rect width="22" height="22" transform="translate(1 1)" fill="#1A1A1A"/> -->
<path d="M12.5817 8.66113L9.67787 8.66113C7.98447 8.66113 6.36042 9.34407 5.16301 10.5597C3.96559 11.7753 3.29289 13.4241 3.29289 15.1433C3.29289 16.8624 3.96559 18.5112 5.16301 19.7268C6.36042 20.9425 7.98447 21.6254 9.67787 21.6254L20.708 21.6254" stroke="#747474" stroke-width="1.83333" stroke-linecap="round" stroke-linejoin="round"/>
<path d="M10.2592 11.019L12.5811 8.66183L10.2592 6.30469" stroke="#747474" stroke-width="1.83333" stroke-linecap="round" stroke-linejoin="round"/>
<path d="M11.4173 15.3389L14.3212 15.3389C16.0146 15.3389 17.6386 14.6559 18.836 13.4403C20.0334 12.2247 20.7061 10.5759 20.7061 8.85672C20.7061 7.13755 20.0334 5.48879 18.836 4.27316C17.6386 3.05752 16.0146 2.37458 14.3212 2.37458L3.29102 2.37458" stroke="#747474" stroke-width="1.83333" stroke-linecap="round" stroke-linejoin="round"/>
<path d="M13.7398 12.982L11.418 15.3391L13.7398 17.6963" stroke="#747474" stroke-width="1.83333" stroke-linecap="round" stroke-linejoin="round"/>
</svg>
