<svg width="24" height="21" viewBox="0 0 24 21" fill="none" xmlns="http://www.w3.org/2000/svg">
<path fill-rule="evenodd" clip-rule="evenodd" d="M4.39403 0.102539L0.0179909 9.29442C0.00133879 9.32861 -0.00393815 9.36723 0.00293176 9.40463C0.00980167 9.44203 0.028458 9.47626 0.0561725 9.5023L11.8748 20.8274C11.9084 20.8596 11.9531 20.8776 11.9996 20.8776C12.0461 20.8776 12.0908 20.8596 12.1244 20.8274L23.943 9.503C23.9708 9.47696 23.9894 9.44274 23.9963 9.40534C24.0032 9.36794 23.9979 9.32932 23.9812 9.29513L19.6052 0.103246C19.5911 0.0723753 19.5683 0.0462243 19.5398 0.027918C19.5112 0.00961164 19.4779 -7.57261e-05 19.444 1.36834e-05H4.55666C4.52255 -0.000410672 4.48905 0.00904334 4.46019 0.0272353C4.43133 0.0454272 4.40836 0.0715799 4.39403 0.102539Z" fill="#50AF95"/>
<path fill-rule="evenodd" clip-rule="evenodd" d="M13.5176 10.2385C13.4328 10.2449 12.9944 10.2711 12.0165 10.2711C11.2388 10.2711 10.6865 10.2477 10.4928 10.2385C7.48706 10.1063 5.24354 9.58308 5.24354 8.95662C5.24354 8.33016 7.48706 7.80763 10.4928 7.67329V9.71742C10.6894 9.73157 11.2522 9.7648 12.03 9.7648C12.9633 9.7648 13.4307 9.72591 13.5148 9.71813V7.67471C16.5142 7.80834 18.7528 8.33157 18.7528 8.95662C18.7528 9.58167 16.5149 10.1049 13.5148 10.2378L13.5176 10.2385ZM13.5176 7.46329V5.63411H17.7035V2.84473H6.30697V5.63411H10.4921V7.46259C7.0904 7.61885 4.53223 8.29268 4.53223 9.10016C4.53223 9.90763 7.0904 10.5808 10.4921 10.7377V16.5993H13.5169V10.7356C16.9109 10.5793 19.4648 9.90621 19.4648 9.09945C19.4648 8.29268 16.913 7.61955 13.5169 7.46259L13.5176 7.46329Z" fill="white"/>
</svg>
