<svg width="24" height="24" viewBox="0 0 24 24" fill="none" xmlns="http://www.w3.org/2000/svg">
<g clip-path="url(#clip0_23_7813)">
<!-- <rect width="22" height="22" transform="translate(1 1)" fill="#1A1A1A"/> -->
<path d="M20.9375 17.958V19.333C20.9375 20.0623 20.6477 20.7618 20.132 21.2775C19.6163 21.7932 18.9168 22.083 18.1875 22.083H4.4375C3.70815 22.083 3.00868 21.7932 2.49296 21.2775C1.97723 20.7618 1.6875 20.0623 1.6875 19.333V9.70801C1.6875 8.97866 1.97723 8.27919 2.49296 7.76346C3.00868 7.24774 3.70815 6.95801 4.4375 6.95801H18.1875C18.9168 6.95801 19.6163 7.24774 20.132 7.76346C20.6477 8.27919 20.9375 8.97866 20.9375 9.70801V11.083" stroke="#747474" stroke-width="1.83333" stroke-linecap="round" stroke-linejoin="round"/>
<path d="M18.1875 6.95896L16.0526 2.68912C15.9718 2.52754 15.8601 2.38345 15.7236 2.26508C15.5872 2.14671 15.4288 2.05639 15.2574 1.99928C15.0861 1.94215 14.9051 1.91935 14.7249 1.93219C14.5448 1.94501 14.3689 1.99322 14.2073 2.07404L4.4375 6.95896" stroke="#747474" stroke-width="1.83333" stroke-linecap="round" stroke-linejoin="round"/>
<path d="M20.9375 17.958C21.3022 17.958 21.6519 17.8132 21.9098 17.5553C22.1677 17.2975 22.3125 16.9477 22.3125 16.583V12.458C22.3125 12.0934 22.1677 11.7436 21.9098 11.4857C21.6519 11.2278 21.3022 11.083 20.9375 11.083H17.5C16.5883 11.083 15.714 11.4452 15.0693 12.0898C14.4247 12.7345 14.0625 13.6088 14.0625 14.5205C14.0625 15.4322 14.4247 16.3065 15.0693 16.9512C15.714 17.5958 16.5883 17.958 17.5 17.958H20.9375Z" stroke="#747474" stroke-width="1.83333" stroke-linecap="round" stroke-linejoin="round"/>
</g>
<defs>
<clipPath id="clip0_23_7813">
<rect width="22" height="22" fill="white" transform="translate(1 1)"/>
</clipPath>
</defs>
</svg>
